<mxfile host="app.diagrams.net" modified="2020-12-20T13:40:18.309Z" agent="5.0 (X11; Linux x86_64) AppleWebKit/537.36 (KHTML, like Gecko) Chrome/87.0.4280.66 Safari/537.36" etag="dSiGG01JkvG-My4L61pK" version="13.11.0" type="github">
  <diagram name="Page-1" id="74e2e168-ea6b-b213-b513-2b3c1d86103e">
    <mxGraphModel dx="1329" dy="921" grid="1" gridSize="10" guides="1" tooltips="1" connect="1" arrows="1" fold="1" page="1" pageScale="1" pageWidth="1100" pageHeight="850" background="#ffffff" math="0" shadow="0">
      <root>
        <mxCell id="0" />
        <mxCell id="1" parent="0" />
        <mxCell id="6PLmAHvb3xFuPF-B3GsO-1" value="QCraft 系统部署时序图（注：NAS 可替换为 SSD0，可加快数据准备与镜像制作速度，但数据准备阶段与镜像制作阶段需要串行完成）" style="swimlane;html=1;childLayout=stackLayout;startSize=20;rounded=0;shadow=0;labelBackgroundColor=none;strokeWidth=1;fontFamily=Verdana;fontSize=12;align=left;" vertex="1" parent="1">
          <mxGeometry x="1" y="10" width="810" height="810" as="geometry" />
        </mxCell>
        <mxCell id="6PLmAHvb3xFuPF-B3GsO-2" value="" style="swimlane;html=1;startSize=20;" vertex="1" parent="6PLmAHvb3xFuPF-B3GsO-1">
          <mxGeometry y="20" width="40" height="790" as="geometry" />
        </mxCell>
        <mxCell id="6PLmAHvb3xFuPF-B3GsO-3" value="数据准备阶段" style="whiteSpace=wrap;html=1;gradientDirection=west;fontFamily=Helvetica;horizontal=0;" vertex="1" parent="6PLmAHvb3xFuPF-B3GsO-2">
          <mxGeometry y="20" width="40" height="410" as="geometry" />
        </mxCell>
        <mxCell id="6PLmAHvb3xFuPF-B3GsO-4" value="系统部署阶段" style="whiteSpace=wrap;html=1;horizontal=0;" vertex="1" parent="6PLmAHvb3xFuPF-B3GsO-2">
          <mxGeometry y="630" width="40" height="160" as="geometry" />
        </mxCell>
        <mxCell id="6PLmAHvb3xFuPF-B3GsO-5" value="镜像制作阶段" style="whiteSpace=wrap;html=1;horizontal=0;" vertex="1" parent="6PLmAHvb3xFuPF-B3GsO-2">
          <mxGeometry y="430" width="40" height="200" as="geometry" />
        </mxCell>
        <mxCell id="6PLmAHvb3xFuPF-B3GsO-126" value="XAVIER" style="swimlane;html=1;startSize=20;" vertex="1" parent="6PLmAHvb3xFuPF-B3GsO-1">
          <mxGeometry x="40" y="20" width="160" height="790" as="geometry" />
        </mxCell>
        <mxCell id="6PLmAHvb3xFuPF-B3GsO-149" style="edgeStyle=orthogonalEdgeStyle;rounded=0;orthogonalLoop=1;jettySize=auto;html=1;exitX=0.5;exitY=1;exitDx=0;exitDy=0;entryX=0.5;entryY=0;entryDx=0;entryDy=0;" edge="1" parent="6PLmAHvb3xFuPF-B3GsO-126" source="6PLmAHvb3xFuPF-B3GsO-127" target="6PLmAHvb3xFuPF-B3GsO-147">
          <mxGeometry relative="1" as="geometry" />
        </mxCell>
        <mxCell id="6PLmAHvb3xFuPF-B3GsO-127" value="运行 build_xavier.sh 系统部署" style="rounded=1;whiteSpace=wrap;html=1;shadow=0;labelBackgroundColor=none;strokeWidth=1;fontFamily=Verdana;fontSize=12;align=center;imageHeight=24;" vertex="1" parent="6PLmAHvb3xFuPF-B3GsO-126">
          <mxGeometry x="30" y="650" width="100" height="40" as="geometry" />
        </mxCell>
        <mxCell id="6PLmAHvb3xFuPF-B3GsO-140" style="edgeStyle=orthogonalEdgeStyle;rounded=0;orthogonalLoop=1;jettySize=auto;html=1;exitX=0.5;exitY=1;exitDx=0;exitDy=0;entryX=0.5;entryY=0;entryDx=0;entryDy=0;" edge="1" parent="6PLmAHvb3xFuPF-B3GsO-126" source="6PLmAHvb3xFuPF-B3GsO-130" target="6PLmAHvb3xFuPF-B3GsO-127">
          <mxGeometry relative="1" as="geometry" />
        </mxCell>
        <mxCell id="6PLmAHvb3xFuPF-B3GsO-130" value="挂载SSD2" style="rounded=1;whiteSpace=wrap;html=1;shadow=0;labelBackgroundColor=none;strokeWidth=1;fontFamily=Verdana;fontSize=12;align=center;imageHeight=24;" vertex="1" parent="6PLmAHvb3xFuPF-B3GsO-126">
          <mxGeometry x="30" y="580" width="100" height="40" as="geometry" />
        </mxCell>
        <mxCell id="6PLmAHvb3xFuPF-B3GsO-147" value="结束部署" style="rounded=1;whiteSpace=wrap;html=1;shadow=0;labelBackgroundColor=none;strokeWidth=1;fontFamily=Verdana;fontSize=12;align=center;imageHeight=24;" vertex="1" parent="6PLmAHvb3xFuPF-B3GsO-126">
          <mxGeometry x="30" y="717" width="100" height="40" as="geometry" />
        </mxCell>
        <mxCell id="6PLmAHvb3xFuPF-B3GsO-6" value="Laptop/PC" style="swimlane;html=1;startSize=20;" vertex="1" parent="6PLmAHvb3xFuPF-B3GsO-1">
          <mxGeometry x="200" y="20" width="160" height="790" as="geometry" />
        </mxCell>
        <mxCell id="6PLmAHvb3xFuPF-B3GsO-7" style="edgeStyle=orthogonalEdgeStyle;rounded=0;orthogonalLoop=1;jettySize=auto;html=1;exitX=0.5;exitY=1;exitDx=0;exitDy=0;entryX=0.5;entryY=0;entryDx=0;entryDy=0;fontFamily=Helvetica;fontSize=14;" edge="1" parent="6PLmAHvb3xFuPF-B3GsO-6" source="6PLmAHvb3xFuPF-B3GsO-8" target="6PLmAHvb3xFuPF-B3GsO-9">
          <mxGeometry relative="1" as="geometry" />
        </mxCell>
        <mxCell id="6PLmAHvb3xFuPF-B3GsO-8" value="下载最新脚本" style="rounded=1;whiteSpace=wrap;html=1;shadow=0;labelBackgroundColor=none;strokeWidth=1;fontFamily=Verdana;fontSize=12;align=center;imageHeight=24;" vertex="1" parent="6PLmAHvb3xFuPF-B3GsO-6">
          <mxGeometry x="30" y="40" width="100" height="40" as="geometry" />
        </mxCell>
        <mxCell id="6PLmAHvb3xFuPF-B3GsO-89" style="edgeStyle=orthogonalEdgeStyle;rounded=0;orthogonalLoop=1;jettySize=auto;html=1;exitX=0.5;exitY=1;exitDx=0;exitDy=0;entryX=0.5;entryY=0;entryDx=0;entryDy=0;" edge="1" parent="6PLmAHvb3xFuPF-B3GsO-6" source="6PLmAHvb3xFuPF-B3GsO-9" target="6PLmAHvb3xFuPF-B3GsO-41">
          <mxGeometry relative="1" as="geometry" />
        </mxCell>
        <mxCell id="6PLmAHvb3xFuPF-B3GsO-9" value="挂载NAS" style="rounded=1;whiteSpace=wrap;html=1;shadow=0;labelBackgroundColor=none;strokeWidth=1;fontFamily=Verdana;fontSize=12;align=center;imageHeight=24;" vertex="1" parent="6PLmAHvb3xFuPF-B3GsO-6">
          <mxGeometry x="30" y="100" width="100" height="40" as="geometry" />
        </mxCell>
        <mxCell id="6PLmAHvb3xFuPF-B3GsO-143" style="edgeStyle=orthogonalEdgeStyle;rounded=0;orthogonalLoop=1;jettySize=auto;html=1;exitX=0.5;exitY=1;exitDx=0;exitDy=0;entryX=0.5;entryY=0;entryDx=0;entryDy=0;" edge="1" parent="6PLmAHvb3xFuPF-B3GsO-6" source="6PLmAHvb3xFuPF-B3GsO-41" target="6PLmAHvb3xFuPF-B3GsO-98">
          <mxGeometry relative="1" as="geometry" />
        </mxCell>
        <mxCell id="6PLmAHvb3xFuPF-B3GsO-41" value="运行install_release.sh部署脚本" style="rounded=1;whiteSpace=wrap;html=1;shadow=0;labelBackgroundColor=none;strokeWidth=1;fontFamily=Verdana;fontSize=12;align=center;imageHeight=24;" vertex="1" parent="6PLmAHvb3xFuPF-B3GsO-6">
          <mxGeometry x="30" y="160" width="100" height="40" as="geometry" />
        </mxCell>
        <mxCell id="6PLmAHvb3xFuPF-B3GsO-98" value="更新脚本目录" style="rounded=1;whiteSpace=wrap;html=1;shadow=0;labelBackgroundColor=none;strokeWidth=1;fontFamily=Verdana;fontSize=12;align=center;imageHeight=24;" vertex="1" parent="6PLmAHvb3xFuPF-B3GsO-6">
          <mxGeometry x="30" y="220" width="100" height="40" as="geometry" />
        </mxCell>
        <mxCell id="6PLmAHvb3xFuPF-B3GsO-42" value="准备原始数据" style="rounded=1;whiteSpace=wrap;html=1;shadow=0;labelBackgroundColor=none;strokeWidth=1;fontFamily=Verdana;fontSize=12;align=center;imageHeight=24;" vertex="1" parent="6PLmAHvb3xFuPF-B3GsO-6">
          <mxGeometry x="30" y="280" width="100" height="40" as="geometry" />
        </mxCell>
        <mxCell id="6PLmAHvb3xFuPF-B3GsO-43" value="运行prebuild.sh更新数据" style="rounded=1;whiteSpace=wrap;html=1;shadow=0;labelBackgroundColor=none;strokeWidth=1;fontFamily=Verdana;fontSize=12;align=center;imageHeight=24;" vertex="1" parent="6PLmAHvb3xFuPF-B3GsO-6">
          <mxGeometry x="30" y="340" width="100" height="40" as="geometry" />
        </mxCell>
        <mxCell id="6PLmAHvb3xFuPF-B3GsO-53" value="运行pakcage.sh打包数据" style="rounded=1;whiteSpace=wrap;html=1;shadow=0;labelBackgroundColor=none;strokeWidth=1;fontFamily=Verdana;fontSize=12;align=center;imageHeight=24;" vertex="1" parent="6PLmAHvb3xFuPF-B3GsO-6">
          <mxGeometry x="30" y="450" width="100" height="40" as="geometry" />
        </mxCell>
        <mxCell id="6PLmAHvb3xFuPF-B3GsO-52" value="拷贝数据到SSD2" style="rounded=1;whiteSpace=wrap;html=1;shadow=0;labelBackgroundColor=none;strokeWidth=1;fontFamily=Verdana;fontSize=12;align=center;imageHeight=24;" vertex="1" parent="6PLmAHvb3xFuPF-B3GsO-6">
          <mxGeometry x="30" y="580" width="100" height="40" as="geometry" />
        </mxCell>
        <mxCell id="6PLmAHvb3xFuPF-B3GsO-100" style="edgeStyle=orthogonalEdgeStyle;rounded=0;orthogonalLoop=1;jettySize=auto;html=1;exitX=0.5;exitY=1;exitDx=0;exitDy=0;entryX=0.5;entryY=0;entryDx=0;entryDy=0;" edge="1" parent="6PLmAHvb3xFuPF-B3GsO-6" source="6PLmAHvb3xFuPF-B3GsO-98" target="6PLmAHvb3xFuPF-B3GsO-42">
          <mxGeometry relative="1" as="geometry" />
        </mxCell>
        <mxCell id="6PLmAHvb3xFuPF-B3GsO-101" style="edgeStyle=orthogonalEdgeStyle;rounded=0;orthogonalLoop=1;jettySize=auto;html=1;exitX=0.5;exitY=1;exitDx=0;exitDy=0;entryX=0.5;entryY=0;entryDx=0;entryDy=0;" edge="1" parent="6PLmAHvb3xFuPF-B3GsO-6" source="6PLmAHvb3xFuPF-B3GsO-42" target="6PLmAHvb3xFuPF-B3GsO-43">
          <mxGeometry relative="1" as="geometry" />
        </mxCell>
        <mxCell id="6PLmAHvb3xFuPF-B3GsO-118" style="edgeStyle=orthogonalEdgeStyle;rounded=0;orthogonalLoop=1;jettySize=auto;html=1;exitX=0.5;exitY=1;exitDx=0;exitDy=0;" edge="1" parent="6PLmAHvb3xFuPF-B3GsO-6" source="6PLmAHvb3xFuPF-B3GsO-43" target="6PLmAHvb3xFuPF-B3GsO-53">
          <mxGeometry relative="1" as="geometry" />
        </mxCell>
        <mxCell id="6PLmAHvb3xFuPF-B3GsO-137" style="edgeStyle=orthogonalEdgeStyle;rounded=0;orthogonalLoop=1;jettySize=auto;html=1;exitX=0.5;exitY=1;exitDx=0;exitDy=0;entryX=0.5;entryY=0;entryDx=0;entryDy=0;" edge="1" parent="6PLmAHvb3xFuPF-B3GsO-6" source="6PLmAHvb3xFuPF-B3GsO-53" target="6PLmAHvb3xFuPF-B3GsO-52">
          <mxGeometry relative="1" as="geometry" />
        </mxCell>
        <mxCell id="6PLmAHvb3xFuPF-B3GsO-21" value="OMC(TestBench)" style="swimlane;html=1;startSize=20;" vertex="1" parent="6PLmAHvb3xFuPF-B3GsO-1">
          <mxGeometry x="360" y="20" width="290" height="790" as="geometry" />
        </mxCell>
        <mxCell id="6PLmAHvb3xFuPF-B3GsO-104" style="edgeStyle=orthogonalEdgeStyle;rounded=0;orthogonalLoop=1;jettySize=auto;html=1;exitX=0.5;exitY=1;exitDx=0;exitDy=0;entryX=0.5;entryY=0;entryDx=0;entryDy=0;" edge="1" parent="6PLmAHvb3xFuPF-B3GsO-21" source="6PLmAHvb3xFuPF-B3GsO-51" target="6PLmAHvb3xFuPF-B3GsO-103">
          <mxGeometry relative="1" as="geometry" />
        </mxCell>
        <mxCell id="6PLmAHvb3xFuPF-B3GsO-51" value="运行 CloneZilla 系统还原" style="rounded=1;whiteSpace=wrap;html=1;shadow=0;labelBackgroundColor=none;strokeWidth=1;fontFamily=Verdana;fontSize=12;align=center;imageHeight=24;" vertex="1" parent="6PLmAHvb3xFuPF-B3GsO-21">
          <mxGeometry x="40" y="40" width="100" height="40" as="geometry" />
        </mxCell>
        <mxCell id="6PLmAHvb3xFuPF-B3GsO-110" style="edgeStyle=orthogonalEdgeStyle;rounded=0;orthogonalLoop=1;jettySize=auto;html=1;exitX=0.219;exitY=0.971;exitDx=0;exitDy=0;entryX=0.5;entryY=0;entryDx=0;entryDy=0;exitPerimeter=0;" edge="1" parent="6PLmAHvb3xFuPF-B3GsO-21" source="6PLmAHvb3xFuPF-B3GsO-112" target="6PLmAHvb3xFuPF-B3GsO-84">
          <mxGeometry relative="1" as="geometry" />
        </mxCell>
        <mxCell id="6PLmAHvb3xFuPF-B3GsO-111" value="&lt;span style=&quot;color: rgb(23 , 43 , 77) ; font-size: 12px ; text-align: left ; background-color: rgb(244 , 245 , 247)&quot;&gt;BOOTSTRAP=true INIT=true&lt;/span&gt;" style="edgeLabel;html=1;align=center;verticalAlign=middle;resizable=0;points=[];" vertex="1" connectable="0" parent="6PLmAHvb3xFuPF-B3GsO-110">
          <mxGeometry x="0.2267" y="2" relative="1" as="geometry">
            <mxPoint as="offset" />
          </mxGeometry>
        </mxCell>
        <mxCell id="6PLmAHvb3xFuPF-B3GsO-44" value="&lt;span style=&quot;font-family: &amp;#34;helvetica&amp;#34; ; font-size: 11px ; background-color: rgb(255 , 255 , 255)&quot;&gt;纯净系统&lt;/span&gt;" style="rounded=1;whiteSpace=wrap;html=1;shadow=0;labelBackgroundColor=none;strokeWidth=1;fontFamily=Verdana;fontSize=12;align=center;imageHeight=24;" vertex="1" parent="6PLmAHvb3xFuPF-B3GsO-21">
          <mxGeometry x="40" y="220" width="100" height="40" as="geometry" />
        </mxCell>
        <mxCell id="6PLmAHvb3xFuPF-B3GsO-103" value="纯净系统" style="rhombus;whiteSpace=wrap;html=1;rounded=0;shadow=0;labelBackgroundColor=none;strokeWidth=1;fontFamily=Verdana;fontSize=12;align=center;" vertex="1" parent="6PLmAHvb3xFuPF-B3GsO-21">
          <mxGeometry x="40" y="130" width="100" height="40" as="geometry" />
        </mxCell>
        <mxCell id="6PLmAHvb3xFuPF-B3GsO-106" style="edgeStyle=orthogonalEdgeStyle;rounded=0;orthogonalLoop=1;jettySize=auto;html=1;exitX=0.5;exitY=1;exitDx=0;exitDy=0;entryX=0.5;entryY=0;entryDx=0;entryDy=0;" edge="1" parent="6PLmAHvb3xFuPF-B3GsO-21" source="6PLmAHvb3xFuPF-B3GsO-103" target="6PLmAHvb3xFuPF-B3GsO-44">
          <mxGeometry relative="1" as="geometry">
            <mxPoint x="50.16666666666674" y="195" as="targetPoint" />
          </mxGeometry>
        </mxCell>
        <mxCell id="6PLmAHvb3xFuPF-B3GsO-108" value="是" style="edgeLabel;html=1;align=center;verticalAlign=middle;resizable=0;points=[];" vertex="1" connectable="0" parent="6PLmAHvb3xFuPF-B3GsO-106">
          <mxGeometry x="-0.2583" y="-1" relative="1" as="geometry">
            <mxPoint x="1" y="6.67" as="offset" />
          </mxGeometry>
        </mxCell>
        <mxCell id="6PLmAHvb3xFuPF-B3GsO-117" style="edgeStyle=orthogonalEdgeStyle;rounded=0;orthogonalLoop=1;jettySize=auto;html=1;exitX=0.5;exitY=1;exitDx=0;exitDy=0;entryX=0.5;entryY=0;entryDx=0;entryDy=0;" edge="1" parent="6PLmAHvb3xFuPF-B3GsO-21" source="6PLmAHvb3xFuPF-B3GsO-10" target="6PLmAHvb3xFuPF-B3GsO-83">
          <mxGeometry relative="1" as="geometry" />
        </mxCell>
        <mxCell id="6PLmAHvb3xFuPF-B3GsO-10" value="运行 build_omc.sh" style="rounded=1;whiteSpace=wrap;html=1;shadow=0;labelBackgroundColor=none;strokeWidth=1;fontFamily=Verdana;fontSize=12;align=center;imageHeight=24;" vertex="1" parent="6PLmAHvb3xFuPF-B3GsO-21">
          <mxGeometry x="150" y="449.33" width="100" height="40" as="geometry" />
        </mxCell>
        <mxCell id="6PLmAHvb3xFuPF-B3GsO-123" style="edgeStyle=orthogonalEdgeStyle;rounded=0;orthogonalLoop=1;jettySize=auto;html=1;exitX=0.5;exitY=1;exitDx=0;exitDy=0;" edge="1" parent="6PLmAHvb3xFuPF-B3GsO-21" source="6PLmAHvb3xFuPF-B3GsO-109">
          <mxGeometry relative="1" as="geometry">
            <mxPoint x="200" y="340" as="targetPoint" />
          </mxGeometry>
        </mxCell>
        <mxCell id="6PLmAHvb3xFuPF-B3GsO-109" value="&lt;span style=&quot;font-family: &amp;#34;helvetica&amp;#34; ; font-size: 11px ; background-color: rgb(255 , 255 , 255)&quot;&gt;基础系统&lt;/span&gt;" style="rounded=1;whiteSpace=wrap;html=1;shadow=0;labelBackgroundColor=none;strokeWidth=1;fontFamily=Verdana;fontSize=12;align=center;imageHeight=24;" vertex="1" parent="6PLmAHvb3xFuPF-B3GsO-21">
          <mxGeometry x="150" y="220" width="100" height="40" as="geometry" />
        </mxCell>
        <mxCell id="6PLmAHvb3xFuPF-B3GsO-105" style="edgeStyle=orthogonalEdgeStyle;rounded=0;orthogonalLoop=1;jettySize=auto;html=1;exitX=1;exitY=0.5;exitDx=0;exitDy=0;" edge="1" parent="6PLmAHvb3xFuPF-B3GsO-21" source="6PLmAHvb3xFuPF-B3GsO-103" target="6PLmAHvb3xFuPF-B3GsO-109">
          <mxGeometry relative="1" as="geometry" />
        </mxCell>
        <mxCell id="6PLmAHvb3xFuPF-B3GsO-107" value="否" style="edgeLabel;html=1;align=center;verticalAlign=middle;resizable=0;points=[];" vertex="1" connectable="0" parent="6PLmAHvb3xFuPF-B3GsO-105">
          <mxGeometry x="-0.3569" y="-2" relative="1" as="geometry">
            <mxPoint x="15" y="48" as="offset" />
          </mxGeometry>
        </mxCell>
        <mxCell id="6PLmAHvb3xFuPF-B3GsO-48" style="edgeStyle=orthogonalEdgeStyle;rounded=0;orthogonalLoop=1;jettySize=auto;html=1;exitX=0.5;exitY=1;exitDx=0;exitDy=0;entryX=0.5;entryY=0;entryDx=0;entryDy=0;" edge="1" parent="6PLmAHvb3xFuPF-B3GsO-21" target="6PLmAHvb3xFuPF-B3GsO-10">
          <mxGeometry relative="1" as="geometry">
            <mxPoint x="200" y="380" as="sourcePoint" />
          </mxGeometry>
        </mxCell>
        <mxCell id="6PLmAHvb3xFuPF-B3GsO-49" value="&lt;span style=&quot;color: rgb(23 , 43 , 77) ; font-family: , &amp;#34;sf mono&amp;#34; , &amp;#34;segoe ui mono&amp;#34; , &amp;#34;roboto mono&amp;#34; , &amp;#34;ubuntu mono&amp;#34; , &amp;#34;menlo&amp;#34; , &amp;#34;consolas&amp;#34; , &amp;#34;courier&amp;#34; , monospace ; font-size: 12px ; text-align: left ; background-color: rgb(244 , 245 , 247)&quot;&gt;BOOTSTRAP=false INIT=true&lt;/span&gt;" style="edgeLabel;html=1;align=center;verticalAlign=middle;resizable=0;points=[];" vertex="1" connectable="0" parent="6PLmAHvb3xFuPF-B3GsO-48">
          <mxGeometry x="-0.2235" y="1" relative="1" as="geometry">
            <mxPoint x="-1" y="-6.670000000000002" as="offset" />
          </mxGeometry>
        </mxCell>
        <mxCell id="6PLmAHvb3xFuPF-B3GsO-116" style="edgeStyle=orthogonalEdgeStyle;rounded=0;orthogonalLoop=1;jettySize=auto;html=1;exitX=0.5;exitY=1;exitDx=0;exitDy=0;entryX=0.5;entryY=0;entryDx=0;entryDy=0;" edge="1" parent="6PLmAHvb3xFuPF-B3GsO-21" source="6PLmAHvb3xFuPF-B3GsO-84" target="6PLmAHvb3xFuPF-B3GsO-83">
          <mxGeometry relative="1" as="geometry" />
        </mxCell>
        <mxCell id="6PLmAHvb3xFuPF-B3GsO-84" value="运行 build_omc.sh" style="rounded=1;whiteSpace=wrap;html=1;shadow=0;labelBackgroundColor=none;strokeWidth=1;fontFamily=Verdana;fontSize=12;align=center;imageHeight=24;" vertex="1" parent="6PLmAHvb3xFuPF-B3GsO-21">
          <mxGeometry x="40" y="449.33" width="100" height="40" as="geometry" />
        </mxCell>
        <mxCell id="6PLmAHvb3xFuPF-B3GsO-152" style="edgeStyle=orthogonalEdgeStyle;rounded=0;orthogonalLoop=1;jettySize=auto;html=1;exitX=0;exitY=0.5;exitDx=0;exitDy=0;entryX=0.5;entryY=0;entryDx=0;entryDy=0;" edge="1" parent="6PLmAHvb3xFuPF-B3GsO-21" source="6PLmAHvb3xFuPF-B3GsO-83" target="6PLmAHvb3xFuPF-B3GsO-124">
          <mxGeometry relative="1" as="geometry">
            <Array as="points">
              <mxPoint x="90" y="540" />
            </Array>
          </mxGeometry>
        </mxCell>
        <mxCell id="6PLmAHvb3xFuPF-B3GsO-83" value="运行 CloneZilla 系统制作" style="rounded=1;whiteSpace=wrap;html=1;shadow=0;labelBackgroundColor=none;strokeWidth=1;fontFamily=Verdana;fontSize=12;align=center;imageHeight=24;" vertex="1" parent="6PLmAHvb3xFuPF-B3GsO-21">
          <mxGeometry x="99" y="520" width="100" height="40" as="geometry" />
        </mxCell>
        <mxCell id="6PLmAHvb3xFuPF-B3GsO-112" value="挂载NAS" style="rounded=1;whiteSpace=wrap;html=1;shadow=0;labelBackgroundColor=none;strokeWidth=1;fontFamily=Verdana;fontSize=12;align=center;imageHeight=24;" vertex="1" parent="6PLmAHvb3xFuPF-B3GsO-21">
          <mxGeometry x="40" y="340" width="224" height="40" as="geometry" />
        </mxCell>
        <mxCell id="6PLmAHvb3xFuPF-B3GsO-113" style="edgeStyle=orthogonalEdgeStyle;rounded=0;orthogonalLoop=1;jettySize=auto;html=1;exitX=0.5;exitY=1;exitDx=0;exitDy=0;entryX=0.223;entryY=0.075;entryDx=0;entryDy=0;entryPerimeter=0;" edge="1" parent="6PLmAHvb3xFuPF-B3GsO-21" source="6PLmAHvb3xFuPF-B3GsO-44" target="6PLmAHvb3xFuPF-B3GsO-112">
          <mxGeometry relative="1" as="geometry">
            <mxPoint x="679.9999999999998" y="285" as="sourcePoint" />
            <mxPoint x="679.9999999999998" y="418.3299999999999" as="targetPoint" />
          </mxGeometry>
        </mxCell>
        <mxCell id="6PLmAHvb3xFuPF-B3GsO-124" value="存储镜像到SSD" style="rounded=1;whiteSpace=wrap;html=1;shadow=0;labelBackgroundColor=none;strokeWidth=1;fontFamily=Verdana;fontSize=12;align=center;imageHeight=24;" vertex="1" parent="6PLmAHvb3xFuPF-B3GsO-21">
          <mxGeometry x="40" y="580" width="100" height="40" as="geometry" />
        </mxCell>
        <mxCell id="6PLmAHvb3xFuPF-B3GsO-128" value="拷贝镜像到SSD1" style="rounded=1;whiteSpace=wrap;html=1;shadow=0;labelBackgroundColor=none;strokeWidth=1;fontFamily=Verdana;fontSize=12;align=center;imageHeight=24;" vertex="1" parent="6PLmAHvb3xFuPF-B3GsO-21">
          <mxGeometry x="164" y="580" width="100" height="40" as="geometry" />
        </mxCell>
        <mxCell id="6PLmAHvb3xFuPF-B3GsO-129" style="edgeStyle=orthogonalEdgeStyle;rounded=0;orthogonalLoop=1;jettySize=auto;html=1;exitX=1;exitY=0.5;exitDx=0;exitDy=0;entryX=0;entryY=0.5;entryDx=0;entryDy=0;" edge="1" parent="6PLmAHvb3xFuPF-B3GsO-21" source="6PLmAHvb3xFuPF-B3GsO-124" target="6PLmAHvb3xFuPF-B3GsO-128">
          <mxGeometry relative="1" as="geometry" />
        </mxCell>
        <mxCell id="6PLmAHvb3xFuPF-B3GsO-29" value="OMC" style="swimlane;html=1;startSize=20;" vertex="1" parent="6PLmAHvb3xFuPF-B3GsO-1">
          <mxGeometry x="650" y="20" width="160" height="790" as="geometry" />
        </mxCell>
        <mxCell id="6PLmAHvb3xFuPF-B3GsO-150" style="edgeStyle=orthogonalEdgeStyle;rounded=0;orthogonalLoop=1;jettySize=auto;html=1;exitX=0.5;exitY=1;exitDx=0;exitDy=0;entryX=0.5;entryY=0;entryDx=0;entryDy=0;" edge="1" parent="6PLmAHvb3xFuPF-B3GsO-29" source="6PLmAHvb3xFuPF-B3GsO-23" target="6PLmAHvb3xFuPF-B3GsO-148">
          <mxGeometry relative="1" as="geometry" />
        </mxCell>
        <mxCell id="6PLmAHvb3xFuPF-B3GsO-23" value="运行 CloneZilla 系统还原" style="rounded=1;whiteSpace=wrap;html=1;shadow=0;labelBackgroundColor=none;strokeWidth=1;fontFamily=Verdana;fontSize=12;align=center;imageHeight=24;" vertex="1" parent="6PLmAHvb3xFuPF-B3GsO-29">
          <mxGeometry x="30" y="650" width="100" height="40" as="geometry" />
        </mxCell>
        <mxCell id="6PLmAHvb3xFuPF-B3GsO-148" value="结束部署" style="rounded=1;whiteSpace=wrap;html=1;shadow=0;labelBackgroundColor=none;strokeWidth=1;fontFamily=Verdana;fontSize=12;align=center;imageHeight=24;" vertex="1" parent="6PLmAHvb3xFuPF-B3GsO-29">
          <mxGeometry x="30" y="717" width="100" height="40" as="geometry" />
        </mxCell>
        <mxCell id="6PLmAHvb3xFuPF-B3GsO-155" style="edgeStyle=orthogonalEdgeStyle;rounded=0;orthogonalLoop=1;jettySize=auto;html=1;exitX=0.5;exitY=1;exitDx=0;exitDy=0;" edge="1" parent="6PLmAHvb3xFuPF-B3GsO-29" source="6PLmAHvb3xFuPF-B3GsO-153" target="6PLmAHvb3xFuPF-B3GsO-23">
          <mxGeometry relative="1" as="geometry" />
        </mxCell>
        <mxCell id="6PLmAHvb3xFuPF-B3GsO-153" value="挂载SSD1" style="rounded=1;whiteSpace=wrap;html=1;shadow=0;labelBackgroundColor=none;strokeWidth=1;fontFamily=Verdana;fontSize=12;align=center;imageHeight=24;" vertex="1" parent="6PLmAHvb3xFuPF-B3GsO-29">
          <mxGeometry x="30" y="580" width="100" height="40" as="geometry" />
        </mxCell>
        <mxCell id="6PLmAHvb3xFuPF-B3GsO-146" style="edgeStyle=orthogonalEdgeStyle;rounded=0;orthogonalLoop=1;jettySize=auto;html=1;exitX=0;exitY=0.5;exitDx=0;exitDy=0;entryX=1;entryY=0.5;entryDx=0;entryDy=0;" edge="1" parent="6PLmAHvb3xFuPF-B3GsO-1" source="6PLmAHvb3xFuPF-B3GsO-52" target="6PLmAHvb3xFuPF-B3GsO-130">
          <mxGeometry relative="1" as="geometry" />
        </mxCell>
        <mxCell id="6PLmAHvb3xFuPF-B3GsO-154" style="edgeStyle=orthogonalEdgeStyle;rounded=0;orthogonalLoop=1;jettySize=auto;html=1;exitX=1;exitY=0.5;exitDx=0;exitDy=0;" edge="1" parent="6PLmAHvb3xFuPF-B3GsO-1" source="6PLmAHvb3xFuPF-B3GsO-128" target="6PLmAHvb3xFuPF-B3GsO-153">
          <mxGeometry relative="1" as="geometry" />
        </mxCell>
      </root>
    </mxGraphModel>
  </diagram>
</mxfile>
